<svg xmlns="http://www.w3.org/2000/svg" xmlns:xlink="http://www.w3.org/1999/xlink" width="500" zoomAndPan="magnify" viewBox="0 0 375 374.999991" height="500" preserveAspectRatio="xMidYMid meet" version="1.0"><defs><g/><clipPath id="e39d45c668"><path d="M 155 187 L 230 187 L 230 286.863281 L 155 286.863281 Z M 155 187 " clip-rule="nonzero"/></clipPath><clipPath id="507cb8abf1"><path d="M 155 88.113281 L 230 88.113281 L 230 188 L 155 188 Z M 155 88.113281 " clip-rule="nonzero"/></clipPath><clipPath id="43cd9f5f82"><path d="M 93.472656 150 L 193 150 L 193 225 L 93.472656 225 Z M 93.472656 150 " clip-rule="nonzero"/></clipPath><clipPath id="c68dbc29eb"><path d="M 192 150 L 292.222656 150 L 292.222656 225 L 192 225 Z M 192 150 " clip-rule="nonzero"/></clipPath></defs><g clip-path="url(#e39d45c668)"><path fill="#8338ec" d="M 214.542969 286.832031 L 171.175781 286.832031 C 162.808594 286.832031 155.960938 279.984375 155.960938 271.617188 L 155.960938 250.570312 L 166.105469 250.570312 L 166.105469 271.617188 C 166.105469 274.40625 168.386719 276.6875 171.175781 276.6875 L 214.542969 276.6875 C 217.332031 276.6875 219.613281 274.40625 219.613281 271.617188 L 219.613281 187.523438 L 229.757812 187.523438 L 229.757812 271.617188 C 229.757812 279.984375 222.960938 286.832031 214.542969 286.832031 Z M 214.542969 286.832031 " fill-opacity="1" fill-rule="nonzero"/></g><g clip-path="url(#507cb8abf1)"><path fill="#81e6d9" d="M 166.105469 187.523438 L 155.960938 187.523438 L 155.960938 103.433594 C 155.960938 95.0625 162.808594 88.214844 171.175781 88.214844 L 214.542969 88.214844 C 222.910156 88.214844 229.757812 95.0625 229.757812 103.433594 L 229.757812 124.480469 L 219.613281 124.480469 L 219.613281 103.433594 C 219.613281 100.640625 217.332031 98.359375 214.542969 98.359375 L 171.175781 98.359375 C 168.386719 98.359375 166.105469 100.640625 166.105469 103.433594 Z M 166.105469 187.523438 " fill-opacity="1" fill-rule="nonzero"/></g><g clip-path="url(#43cd9f5f82)"><path fill="#81e6d9" d="M 192.882812 224.449219 L 108.792969 224.449219 C 100.421875 224.449219 93.574219 217.601562 93.574219 209.234375 L 93.574219 165.867188 C 93.574219 157.5 100.421875 150.652344 108.792969 150.652344 L 129.839844 150.652344 L 129.839844 160.796875 L 108.792969 160.796875 C 106 160.796875 103.71875 163.078125 103.71875 165.867188 L 103.71875 209.234375 C 103.71875 212.023438 106 214.304688 108.792969 214.304688 L 192.882812 214.304688 Z M 192.882812 224.449219 " fill-opacity="1" fill-rule="nonzero"/></g><g clip-path="url(#c68dbc29eb)"><path fill="#8338ec" d="M 276.976562 224.449219 L 255.929688 224.449219 L 255.929688 214.304688 L 276.976562 214.304688 C 279.765625 214.304688 282.050781 212.023438 282.050781 209.234375 L 282.050781 165.867188 C 282.050781 163.078125 279.765625 160.796875 276.976562 160.796875 L 192.882812 160.796875 L 192.882812 150.652344 L 276.976562 150.652344 C 285.347656 150.652344 292.191406 157.5 292.191406 165.867188 L 292.191406 209.234375 C 292.191406 217.601562 285.347656 224.449219 276.976562 224.449219 Z M 276.976562 224.449219 " fill-opacity="1" fill-rule="nonzero"/></g><g fill="#81e6d9" fill-opacity="1"><g transform="translate(246.152384, 297.564312)"><g><path d="M 42.1875 -12.25 L 14.8125 -12.25 L 9.609375 0 L 0.078125 0 L 24.046875 -54.28125 L 33.421875 -54.28125 L 57.15625 0 L 47.375 0 Z M 38.703125 -20.390625 L 28.453125 -44.515625 L 18.21875 -20.390625 Z M 38.703125 -20.390625 "/></g></g></g><g fill="#81e6d9" fill-opacity="1"><g transform="translate(314.99102, 297.564312)"><g><path d="M 16.28125 0 L 7.140625 0 L 7.140625 -54.28125 L 16.28125 -54.28125 Z M 16.28125 0 "/></g></g></g><g fill="#8338ec" fill-opacity="1"><g transform="translate(18.78435, 135.026053)"><g><path d="M 7.140625 -54.28125 L 29.390625 -54.28125 C 37.503906 -54.28125 44.210938 -51.71875 49.515625 -46.59375 C 54.816406 -41.476562 57.46875 -34.992188 57.46875 -27.140625 C 57.46875 -19.285156 54.800781 -12.796875 49.46875 -7.671875 C 44.144531 -2.554688 37.375 0 29.15625 0 L 7.140625 0 Z M 16.28125 -46.0625 L 16.28125 -8.21875 L 29.625 -8.21875 C 34.945312 -8.21875 39.378906 -9.988281 42.921875 -13.53125 C 46.460938 -17.070312 48.234375 -21.582031 48.234375 -27.0625 C 48.234375 -32.539062 46.410156 -37.078125 42.765625 -40.671875 C 39.117188 -44.265625 34.609375 -46.0625 29.234375 -46.0625 Z M 16.28125 -46.0625 "/></g></g></g><g fill="#8338ec" fill-opacity="1"><g transform="translate(90.491068, 135.026053)"><g><path d="M 41.5625 0 L 31.640625 -16.4375 C 31.117188 -16.382812 30.289062 -16.359375 29.15625 -16.359375 L 16.28125 -16.359375 L 16.28125 0 L 7.140625 0 L 7.140625 -54.28125 L 29.15625 -54.28125 C 36.082031 -54.28125 41.457031 -52.664062 45.28125 -49.4375 C 49.113281 -46.207031 51.03125 -41.644531 51.03125 -35.75 C 51.03125 -31.40625 50.054688 -27.734375 48.109375 -24.734375 C 46.171875 -21.734375 43.394531 -19.535156 39.78125 -18.140625 L 51.953125 0 Z M 16.28125 -24.578125 L 29.15625 -24.578125 C 37.945312 -24.578125 42.34375 -28.222656 42.34375 -35.515625 C 42.34375 -42.546875 37.945312 -46.0625 29.15625 -46.0625 L 16.28125 -46.0625 Z M 16.28125 -24.578125 "/></g></g></g></svg>