<svg xmlns="http://www.w3.org/2000/svg" xmlns:xlink="http://www.w3.org/1999/xlink" width="400" zoomAndPan="magnify" viewBox="0 0 300 56.249996" height="75" preserveAspectRatio="xMidYMid meet" version="1.0"><defs><g/></defs><g fill="#8338ec" fill-opacity="1"><g transform="translate(61.281386, 41.117203)"><g><path d="M 8.84375 0.078125 L 9.140625 0.046875 L 9.34375 0.046875 L 9.640625 0 L 10.9375 0 L 11.390625 -0.171875 L 12.0625 -0.25 L 12.46875 -0.328125 L 13.0625 -0.5 L 13.46875 -0.796875 L 13.9375 -0.921875 L 14.46875 -1.171875 L 14.734375 -1.328125 L 15.109375 -1.671875 L 15.6875 -2.125 L 16.265625 -2.84375 L 16.5625 -3.34375 L 16.765625 -3.59375 L 16.984375 -3.875 L 17.015625 -4.125 L 17.359375 -4.46875 L 17.5625 -4.875 L 17.859375 -5.71875 L 18.140625 -6.296875 L 18.3125 -6.890625 L 18.359375 -7.140625 L 18.609375 -7.671875 L 18.640625 -8.140625 L 18.734375 -8.390625 L 19.03125 -8.921875 L 19.15625 -9.21875 L 19.234375 -9.71875 L 19.28125 -10.265625 L 19.53125 -11.140625 L 19.5625 -11.5625 L 19.6875 -11.890625 L 19.78125 -12.21875 L 19.859375 -13.1875 L 19.9375 -13.8125 L 20.109375 -14.59375 L 20.109375 -14.890625 L 20.3125 -15.5625 L 20.3125 -16.734375 L 20.359375 -17.015625 L 20.4375 -17.734375 L 20.4375 -18.015625 L 20.5625 -18.6875 L 20.5625 -18.9375 L 20.609375 -19.234375 L 20.53125 -19.53125 L 20.5625 -19.8125 L 20.53125 -20.0625 L 20.40625 -20.65625 L 20.53125 -20.90625 L 20.484375 -21.4375 L 20.40625 -22.28125 L 20.4375 -22.5625 L 20.234375 -23.15625 L 20.234375 -23.453125 L 20.109375 -24.15625 L 19.9375 -24.453125 L 19.6875 -25.078125 L 19.53125 -25.65625 L 19.3125 -26.03125 L 19.15625 -26.234375 L 18.8125 -26.734375 L 18.1875 -27.578125 L 17.9375 -27.78125 L 17.640625 -28 L 17.234375 -28.25 L 17.0625 -28.328125 L 16.859375 -28.453125 L 16.140625 -28.65625 L 15.890625 -28.75 L 15.8125 -28.75 L 15.234375 -28.90625 L 14.890625 -29.03125 L 14.59375 -29.03125 L 13.96875 -29.125 L 13.59375 -29.15625 L 13.265625 -29.203125 L 12.59375 -29.203125 L 12.34375 -29.15625 L 11.890625 -29.203125 L 10.84375 -29.203125 L 10.015625 -29.15625 L 9.09375 -29.203125 L 8.765625 -29.203125 L 8.09375 -29.125 L 7.796875 -29.15625 L 7.296875 -29.203125 L 7.015625 -29.203125 L 6.59375 -29.078125 L 6.46875 -28.625 L 6.390625 -28.5 L 6.25 -28.078125 L 6.171875 -27.78125 L 6.125 -27.28125 L 6.09375 -26.984375 L 5.96875 -26.734375 L 5.875 -26.234375 L 5.796875 -25.65625 L 5.671875 -25.109375 L 5.625 -24.828125 L 5.625 -24.578125 L 5.546875 -24.28125 L 5.34375 -23.53125 L 5.25 -23.03125 L 5.171875 -22.15625 L 5.125 -21.8125 L 5.125 -21.234375 L 4.96875 -20.734375 L 4.875 -20.234375 L 4.875 -19.984375 L 4.75 -19.484375 L 4.71875 -19.1875 L 4.625 -18.6875 L 4.59375 -18.390625 L 4.59375 -18.140625 L 4.546875 -17.859375 L 4.46875 -17.5625 L 4.34375 -17.265625 L 4.125 -16.109375 L 4.046875 -15.859375 L 3.921875 -15.265625 L 3.84375 -15.015625 L 3.75 -14.734375 L 3.75 -13.890625 L 3.59375 -13.390625 L 3.546875 -13.140625 L 3.421875 -12.640625 L 3.34375 -12.34375 L 3.25 -11.8125 L 3.21875 -11.515625 L 3.09375 -10.9375 L 3.046875 -10.59375 L 2.921875 -10.015625 L 2.921875 -9.09375 L 2.75 -8.796875 L 2.71875 -8.546875 L 2.671875 -8.015625 L 2.59375 -7.671875 L 2.46875 -7.09375 L 2.46875 -6.765625 L 2.375 -6.34375 L 2.21875 -6 L 2.125 -5.546875 L 2.078125 -5.21875 L 2 -4.625 L 2 -4.296875 L 1.921875 -3.96875 L 1.828125 -3.546875 L 1.703125 -2.96875 L 1.671875 -2.71875 L 1.578125 -2.125 L 1.375 -1.625 L 1.328125 -1.25 L 1.328125 -0.296875 L 1.671875 -0.203125 L 2.25 -0.125 L 3.5 -0.125 L 3.796875 -0.171875 L 4.125 -0.171875 L 4.375 -0.125 L 4.96875 -0.046875 L 5.34375 -0.046875 L 5.671875 0 L 6.171875 -0.046875 L 6.796875 0.046875 L 7.34375 0 L 7.890625 0.046875 Z M 8.671875 -5.59375 L 8.09375 -5.75 L 8.171875 -6.125 L 8.296875 -6.84375 L 8.34375 -7.46875 L 8.421875 -8.09375 L 8.59375 -8.671875 L 8.640625 -8.96875 L 8.796875 -9.71875 L 8.921875 -10.34375 L 8.921875 -10.59375 L 9.140625 -11.1875 L 9.171875 -11.4375 L 9.171875 -11.96875 L 9.34375 -13.0625 L 9.421875 -13.34375 L 9.390625 -13.59375 L 9.46875 -13.890625 L 9.59375 -14.46875 L 9.59375 -14.734375 L 9.71875 -15.3125 L 9.796875 -15.5625 L 9.921875 -16.140625 L 9.921875 -16.4375 L 10.015625 -17.109375 L 10.140625 -17.6875 L 10.140625 -17.9375 L 10.265625 -18.1875 L 10.296875 -18.515625 L 10.296875 -18.8125 L 10.390625 -19.109375 L 10.421875 -19.359375 L 10.515625 -20.28125 L 10.59375 -20.859375 L 10.6875 -21.40625 L 10.84375 -21.984375 L 10.96875 -22.609375 L 11.0625 -22.90625 L 11.0625 -23.15625 L 11.1875 -23.453125 L 11.3125 -23.78125 L 11.6875 -23.828125 L 12.21875 -23.78125 L 12.890625 -23.703125 L 13.59375 -23.484375 L 13.8125 -23.328125 L 14.0625 -23.109375 L 14.34375 -22.5625 L 14.59375 -21.859375 L 14.640625 -21.53125 L 14.734375 -20.40625 L 14.6875 -19.1875 L 14.734375 -18.3125 L 14.640625 -17.4375 L 14.59375 -17.1875 L 14.46875 -16.3125 L 14.46875 -15.734375 L 14.265625 -15.140625 L 14.1875 -14.8125 L 14.140625 -14.515625 L 14.0625 -13.890625 L 13.96875 -13.3125 L 13.890625 -12.765625 L 13.84375 -12.46875 L 13.71875 -11.96875 L 13.640625 -11.71875 L 13.5625 -11.515625 L 13.515625 -11.265625 L 13.34375 -10.71875 L 13.21875 -10.140625 L 13.09375 -9.671875 L 12.84375 -8.890625 L 12.640625 -8.34375 L 12.4375 -7.921875 L 12.265625 -7.515625 L 12.09375 -7.21875 L 11.96875 -6.96875 L 11.6875 -6.640625 L 11.34375 -6.296875 L 11.140625 -6.125 L 10.6875 -5.875 L 10.34375 -5.71875 L 9.921875 -5.59375 Z M 8.671875 -5.59375 "/></g></g></g><g fill="#8338ec" fill-opacity="1"><g transform="translate(84.516957, 41.117203)"><g><path d="M 10.09375 0.671875 L 11.015625 0.546875 L 11.46875 0.421875 L 11.765625 0.375 L 12.34375 0.25 L 12.6875 0.171875 L 12.96875 0.125 L 13.9375 -0.25 L 14.09375 -0.375 L 14.59375 -0.703125 L 15.109375 -1.078125 L 15.3125 -1.328125 L 15.5625 -1.546875 L 16.0625 -2.046875 L 16.140625 -2.296875 L 16.359375 -2.546875 L 16.515625 -2.796875 L 16.890625 -3.34375 L 17.109375 -3.625 L 17.4375 -4.375 L 17.734375 -4.96875 L 17.765625 -5.375 L 17.984375 -5.671875 L 18.109375 -6.125 L 18.109375 -6.421875 L 18.234375 -6.921875 L 18.4375 -7.390625 L 18.484375 -7.84375 L 18.609375 -8.09375 L 18.8125 -8.59375 L 18.765625 -8.84375 L 19.1875 -10.296875 L 19.3125 -10.5625 L 19.40625 -11.140625 L 19.484375 -11.4375 L 19.484375 -11.8125 L 19.609375 -12.5625 L 19.734375 -12.8125 L 19.859375 -13.34375 L 19.90625 -13.84375 L 20.03125 -14.390625 L 20.109375 -14.9375 L 20.28125 -15.484375 L 20.234375 -15.984375 L 20.4375 -16.4375 L 20.40625 -16.859375 L 20.484375 -17.515625 L 20.5625 -17.8125 L 20.609375 -18.484375 L 20.65625 -19.109375 L 20.734375 -19.6875 L 20.78125 -19.9375 L 20.78125 -20.359375 L 20.734375 -20.65625 L 20.78125 -20.90625 L 20.859375 -21.1875 L 20.90625 -21.734375 L 20.90625 -22.03125 L 20.859375 -22.5625 L 20.90625 -22.8125 L 20.9375 -23.359375 L 20.9375 -23.65625 L 20.90625 -23.984375 L 20.8125 -24.78125 L 20.6875 -25.40625 L 20.609375 -25.703125 L 20.53125 -25.953125 L 20.40625 -26.203125 L 20.15625 -26.734375 L 20.03125 -27.03125 L 19.8125 -27.28125 L 19.359375 -27.703125 L 18.90625 -28.078125 L 18.6875 -28.328125 L 18.359375 -28.53125 L 17.609375 -29.03125 L 16.984375 -29.328125 L 16.734375 -29.40625 L 16.390625 -29.453125 L 16.0625 -29.578125 L 15.390625 -29.65625 L 14.9375 -29.703125 L 14.6875 -29.75 L 13.9375 -29.78125 L 13.4375 -29.75 L 12.84375 -29.703125 L 12.09375 -29.578125 L 11.6875 -29.53125 L 11.0625 -29.375 L 10.8125 -29.328125 L 10.171875 -29.15625 L 9.671875 -28.90625 L 9.171875 -28.625 L 8.890625 -28.40625 L 8.546875 -28.28125 L 8.015625 -27.90625 L 7.421875 -27.28125 L 7.21875 -27.03125 L 6.921875 -26.828125 L 6.59375 -26.328125 L 6.25 -25.78125 L 6.09375 -25.53125 L 6.046875 -25.234375 L 5.671875 -24.703125 L 5.5 -24.40625 L 5.25 -23.90625 L 5.046875 -23.328125 L 4.875 -22.8125 L 4.75 -22.53125 L 4.5 -21.984375 L 4.421875 -21.4375 L 4.21875 -21.15625 L 4.046875 -20.109375 L 3.96875 -19.53125 L 3.921875 -19.28125 L 3.796875 -18.984375 L 3.71875 -18.484375 L 3.71875 -17.890625 L 3.625 -17.609375 L 3.375 -17.1875 L 3.421875 -16.9375 L 3.34375 -16.640625 L 3.34375 -16.390625 L 3.25 -16.109375 L 3.125 -15.859375 L 3.125 -15.5625 L 3 -15.0625 L 3 -14.515625 L 2.875 -14.015625 L 2.75 -13.265625 L 2.671875 -12.96875 L 2.59375 -12.4375 L 2.671875 -12.21875 L 2.5 -11.640625 L 2.5 -11.34375 L 2.421875 -10.765625 L 2.421875 -10.421875 L 2.25 -9.84375 L 2.171875 -8.921875 L 2.171875 -8.640625 L 2.21875 -8.296875 L 2.078125 -7.890625 L 2.078125 -7.09375 L 2 -6.796875 L 2.125 -5.96875 L 2.171875 -5.71875 L 2.21875 -5.125 L 2.296875 -4.875 L 2.34375 -4.59375 L 2.421875 -4.34375 L 2.5 -4.125 L 2.546875 -3.875 L 2.671875 -3.59375 L 2.671875 -3.34375 L 3 -2.796875 L 3.21875 -2.5 L 3.34375 -2.25 L 3.546875 -2.046875 L 3.671875 -1.828125 L 4.25 -1.171875 L 5 -0.546875 L 5.59375 -0.171875 L 5.875 0 L 6.515625 0.171875 L 6.84375 0.203125 L 7.796875 0.5 L 8.171875 0.546875 L 8.46875 0.578125 L 9.015625 0.546875 Z M 9.765625 -5 L 9.515625 -5.046875 L 9.171875 -5.125 L 8.84375 -5.25 L 8.640625 -5.46875 L 8.390625 -5.84375 L 8.296875 -6 L 8.171875 -6.296875 L 8.171875 -7.46875 L 8.046875 -7.765625 L 8.21875 -8.171875 L 8.265625 -8.671875 L 8.140625 -8.96875 L 8.265625 -9.265625 L 8.265625 -9.546875 L 8.390625 -10.171875 L 8.390625 -10.515625 L 8.46875 -10.8125 L 8.46875 -11.140625 L 8.546875 -11.515625 L 8.515625 -11.6875 L 8.59375 -11.96875 L 8.546875 -12.3125 L 8.765625 -12.890625 L 8.890625 -13.1875 L 8.84375 -13.515625 L 8.890625 -13.8125 L 8.890625 -14.09375 L 8.96875 -14.6875 L 9.046875 -14.984375 L 9.21875 -15.640625 L 9.34375 -15.984375 L 9.421875 -16.609375 L 9.515625 -16.890625 L 9.546875 -17.1875 L 9.671875 -17.859375 L 9.796875 -18.4375 L 9.96875 -19.03125 L 10.015625 -19.28125 L 10.140625 -19.859375 L 10.171875 -20.1875 L 10.171875 -20.28125 L 10.515625 -21.484375 L 10.59375 -21.78125 L 10.84375 -22.3125 L 11.015625 -22.609375 L 11.1875 -23.109375 L 11.46875 -23.578125 L 11.890625 -23.953125 L 12.5625 -24.203125 L 12.890625 -24.28125 L 13.6875 -24.328125 L 14.34375 -24.03125 L 14.640625 -23.65625 L 14.8125 -23.40625 L 14.984375 -22.5625 L 14.890625 -21.984375 L 14.859375 -21.4375 L 14.765625 -20.6875 L 14.765625 -20.15625 L 14.6875 -19.78125 L 14.5625 -19.1875 L 14.46875 -18.859375 L 14.4375 -18.3125 L 14.46875 -18.015625 L 14.390625 -17.734375 L 14.3125 -17.390625 L 14.21875 -16.890625 L 14.0625 -16.265625 L 14.09375 -15.5625 L 13.96875 -15.3125 L 13.890625 -14.515625 L 13.765625 -14.1875 L 13.640625 -13.8125 L 13.5625 -12.84375 L 13.4375 -12.21875 L 13.3125 -11.84375 L 13.34375 -11.71875 L 13.34375 -11.390625 L 13.21875 -11.140625 L 13.1875 -10.8125 L 13.0625 -10.265625 L 12.9375 -9.96875 L 12.890625 -9.390625 L 12.765625 -9.046875 L 12.6875 -8.46875 L 12.59375 -8.171875 L 12.46875 -7.546875 L 12.46875 -7.21875 L 12.390625 -6.921875 L 12.140625 -6.34375 L 11.84375 -5.75 L 11.265625 -5.34375 L 10.890625 -5.171875 L 10.296875 -5 Z M 9.765625 -5 "/></g></g></g><g fill="#8338ec" fill-opacity="1"><g transform="translate(107.710821, 41.117203)"><g><path d="M 9.140625 0.5 L 9.546875 0.421875 L 10.09375 0.375 L 10.71875 0.375 L 11.265625 0.25 L 11.765625 0.171875 L 12.265625 0.046875 L 13.34375 -0.203125 L 13.640625 -0.328125 L 14.3125 -0.75 L 14.9375 -1.296875 L 15.5625 -2.046875 L 15.640625 -2.296875 L 15.765625 -2.546875 L 15.984375 -2.796875 L 16.140625 -3.046875 L 16.265625 -3.34375 L 16.484375 -3.84375 L 16.734375 -4.5 L 16.859375 -4.75 L 16.9375 -5.046875 L 16.984375 -5.34375 L 17.109375 -5.84375 L 17.359375 -6.890625 L 17.4375 -7.140625 L 17.5625 -8.015625 L 17.609375 -8.171875 L 17.640625 -8.46875 L 17.734375 -8.671875 L 17.765625 -9.140625 L 17.859375 -9.671875 L 17.859375 -9.96875 L 17.9375 -10.21875 L 17.9375 -10.6875 L 17.765625 -10.96875 L 17.484375 -11.265625 L 16.984375 -11.3125 L 14.9375 -11.4375 L 14.0625 -11.4375 L 12.96875 -11.46875 L 12.640625 -11.4375 L 12.34375 -11.09375 L 12.265625 -10.6875 L 12.0625 -10.140625 L 12.015625 -9.84375 L 11.9375 -9.46875 L 11.8125 -8.84375 L 11.6875 -8.34375 L 11.640625 -8.140625 L 11.59375 -7.890625 L 11.4375 -7.34375 L 11.21875 -6.765625 L 10.890625 -6 L 10.71875 -5.796875 L 10.140625 -5.421875 L 9.515625 -5.421875 L 8.84375 -5.34375 L 8.21875 -5.546875 L 7.890625 -5.84375 L 7.71875 -6.46875 L 7.71875 -6.765625 L 7.671875 -7.015625 L 7.671875 -7.421875 L 7.71875 -8.015625 L 7.84375 -8.59375 L 7.84375 -8.921875 L 7.96875 -9.796875 L 7.921875 -10.09375 L 8.015625 -10.390625 L 8.046875 -10.6875 L 8.046875 -11.015625 L 8.09375 -11.3125 L 8.21875 -11.59375 L 8.21875 -12.46875 L 8.34375 -13.09375 L 8.421875 -13.4375 L 8.515625 -13.96875 L 8.546875 -14.265625 L 8.71875 -14.9375 L 8.765625 -15.265625 L 9.09375 -16.9375 L 9.296875 -17.5625 L 9.390625 -18.140625 L 9.46875 -18.4375 L 9.515625 -18.6875 L 9.546875 -18.984375 L 9.671875 -19.359375 L 9.796875 -19.859375 L 9.921875 -20.484375 L 10.09375 -20.984375 L 10.09375 -21.234375 L 10.34375 -21.9375 L 10.5625 -22.484375 L 10.71875 -23.203125 L 10.84375 -23.484375 L 10.96875 -23.734375 L 11.34375 -24.203125 L 11.8125 -24.359375 L 12.3125 -24.453125 L 12.765625 -24.453125 L 13.34375 -24.28125 L 13.8125 -24.03125 L 14.0625 -23.28125 L 14.0625 -22.65625 L 13.96875 -22.0625 L 13.9375 -21.53125 L 13.6875 -20.609375 L 13.59375 -20.03125 L 13.4375 -19.28125 L 13.34375 -18.984375 L 13.34375 -18.390625 L 13.640625 -17.9375 L 14.859375 -17.765625 L 17.484375 -17.734375 L 18.0625 -17.765625 L 18.5625 -17.8125 L 18.734375 -17.984375 L 18.9375 -19.0625 L 19.03125 -19.40625 L 19.28125 -21.03125 L 19.359375 -21.6875 L 19.4375 -22.3125 L 19.53125 -22.65625 L 19.5625 -23.078125 L 19.5625 -23.984375 L 19.53125 -24.609375 L 19.484375 -24.984375 L 19.4375 -25.53125 L 19.40625 -26.03125 L 19.3125 -26.484375 L 19.109375 -26.90625 L 19.03125 -27.203125 L 18.90625 -27.40625 L 18.6875 -27.78125 L 18.609375 -28 L 18.140625 -28.40625 L 17.609375 -28.828125 L 17.015625 -29.03125 L 16.5625 -29.125 L 16.390625 -29.25 L 16.109375 -29.28125 L 15.8125 -29.375 L 15.5625 -29.40625 L 14.984375 -29.5 L 14.5625 -29.5 L 14.1875 -29.625 L 13.140625 -29.75 L 12.46875 -29.75 L 11.6875 -29.703125 L 11.0625 -29.703125 L 10.765625 -29.65625 L 10.21875 -29.53125 L 9.515625 -29.40625 L 8.640625 -29.03125 L 8.390625 -28.90625 L 7.84375 -28.65625 L 7.59375 -28.453125 L 7.015625 -27.875 L 6.671875 -27.453125 L 6.390625 -27.03125 L 6.09375 -26.78125 L 5.921875 -26.328125 L 5.671875 -25.734375 L 5.46875 -25.234375 L 5.21875 -24.53125 L 5.046875 -23.953125 L 4.796875 -23.109375 L 4.5 -22.28125 L 4.375 -21.734375 L 4.25 -21.4375 L 4.21875 -21.15625 L 4.171875 -20.90625 L 4.09375 -20.609375 L 4.046875 -20.3125 L 3.921875 -20.0625 L 3.875 -19.65625 L 3.796875 -19.1875 L 3.71875 -18.90625 L 3.5 -18.0625 L 3.5 -17.484375 L 3.375 -17.234375 L 3.375 -16.984375 L 3.34375 -16.484375 L 3.21875 -16.0625 L 3.125 -15.609375 L 3 -15.140625 L 3 -14.984375 L 2.96875 -14.859375 L 2.96875 -14.265625 L 2.796875 -14.015625 L 2.671875 -13.265625 L 2.71875 -13.0625 L 2.59375 -12.59375 L 2.5 -12.265625 L 2.546875 -11.890625 L 2.375 -11.3125 L 2.296875 -10.421875 L 2.25 -10.171875 L 2.25 -9.890625 L 2.171875 -9.296875 L 2.125 -8.71875 L 2.078125 -8.390625 L 2.046875 -7.515625 L 2.046875 -6.421875 L 2 -6.125 L 2 -5.75 L 2.046875 -5.421875 L 2.046875 -4.625 L 2.125 -4.34375 L 2.21875 -3.796875 L 2.296875 -3.546875 L 2.421875 -3 L 2.796875 -2.46875 L 3.09375 -1.875 L 3.296875 -1.671875 L 3.46875 -1.453125 L 4 -1.046875 L 4.25 -0.875 L 4.46875 -0.703125 L 4.875 -0.453125 L 5.125 -0.25 L 5.625 -0.078125 L 6.171875 0.125 L 6.421875 0.171875 L 6.71875 0.25 L 7.140625 0.296875 L 7.390625 0.328125 L 7.71875 0.375 L 8.171875 0.421875 L 8.46875 0.453125 L 8.765625 0.453125 Z M 9.140625 0.5 "/></g></g></g><g fill="#8338ec" fill-opacity="1"><g transform="translate(128.860703, 41.117203)"><g><path d="M 5.171875 0.125 L 5.671875 0 L 9.296875 0 L 9.796875 -0.203125 L 9.890625 -0.453125 L 10.015625 -1.046875 L 10.09375 -1.625 L 10.34375 -2.796875 L 10.5625 -3.71875 L 10.515625 -4.046875 L 10.640625 -4.625 L 10.71875 -4.96875 L 10.9375 -5.84375 L 11.0625 -6.390625 L 11.09375 -6.671875 L 11.265625 -7.21875 L 11.390625 -7.890625 L 11.515625 -8.46875 L 11.46875 -8.765625 L 11.515625 -9.015625 L 11.5625 -9.296875 L 11.71875 -9.796875 L 11.765625 -10.09375 L 11.84375 -10.34375 L 11.890625 -10.59375 L 11.890625 -11.015625 L 11.96875 -11.390625 L 12.09375 -12.015625 L 12.21875 -12.59375 L 12.21875 -12.84375 L 12.3125 -13.09375 L 12.34375 -13.6875 L 12.515625 -13.96875 L 12.640625 -14.46875 L 12.6875 -15.015625 L 12.6875 -15.3125 L 12.8125 -15.5625 L 12.9375 -16.140625 L 13.015625 -16.4375 L 13.09375 -17.0625 L 13.3125 -17.5625 L 13.3125 -17.859375 L 13.34375 -18.109375 L 13.390625 -18.609375 L 13.390625 -18.859375 L 13.5625 -19.40625 L 13.765625 -19.984375 L 13.6875 -20.1875 L 13.84375 -20.53125 L 14.015625 -21.28125 L 14.0625 -21.5625 L 14.140625 -22.109375 L 14.21875 -22.359375 L 14.21875 -22.609375 L 14.34375 -22.90625 L 14.3125 -23.15625 L 14.390625 -23.453125 L 14.765625 -23.484375 L 16.515625 -23.453125 L 16.9375 -23.453125 L 17.3125 -23.484375 L 17.8125 -23.484375 L 18.1875 -23.453125 L 18.609375 -23.484375 L 18.765625 -23.859375 L 18.8125 -24.453125 L 18.90625 -24.734375 L 19.0625 -25.28125 L 19.109375 -25.78125 L 19.15625 -26.03125 L 19.234375 -26.328125 L 19.3125 -26.828125 L 19.3125 -27.078125 L 19.40625 -27.375 L 19.4375 -27.625 L 19.4375 -27.90625 L 19.53125 -28.25 L 19.5625 -28.53125 L 19.5625 -28.78125 L 19.484375 -29.125 L 19.109375 -29.203125 L 18.515625 -29.25 L 15.9375 -29.25 L 15.5625 -29.28125 L 14.6875 -29.25 L 14.0625 -29.28125 L 11.390625 -29.25 L 10.46875 -29.25 L 10.171875 -29.28125 L 7.09375 -29.28125 L 6.796875 -29.25 L 6.515625 -29.25 L 6.296875 -29.28125 L 5.21875 -29.28125 L 4.921875 -29.25 L 4.546875 -28.953125 L 4.34375 -28.5 L 4.296875 -28.25 L 4.296875 -27.65625 L 4.171875 -27.40625 L 4 -26.859375 L 3.96875 -26.28125 L 3.875 -26.03125 L 3.71875 -25.453125 L 3.75 -25.15625 L 3.75 -24.828125 L 3.625 -24.484375 L 3.546875 -23.984375 L 3.671875 -23.609375 L 4.046875 -23.484375 L 4.375 -23.484375 L 4.796875 -23.453125 L 5.171875 -23.453125 L 5.46875 -23.484375 L 6.046875 -23.453125 L 8.296875 -23.453125 L 8.265625 -22.78125 L 8.171875 -22.15625 L 8.09375 -21.859375 L 7.96875 -21.3125 L 7.96875 -21.0625 L 7.921875 -20.78125 L 7.921875 -20.53125 L 7.890625 -20.28125 L 7.671875 -19.609375 L 7.59375 -19.3125 L 7.546875 -19.03125 L 7.546875 -18.6875 L 7.46875 -18.484375 L 7.46875 -18.0625 L 7.265625 -17.609375 L 7.296875 -17.3125 L 7.171875 -16.6875 L 7.09375 -16.4375 L 7.09375 -16.140625 L 6.921875 -15.890625 L 6.84375 -15.609375 L 6.84375 -15.234375 L 6.71875 -14.8125 L 6.71875 -14.21875 L 6.640625 -13.96875 L 6.421875 -13.46875 L 6.515625 -13.1875 L 6.421875 -12.890625 L 6.25 -12.265625 L 6.046875 -11.6875 L 5.96875 -11.390625 L 5.921875 -11.09375 L 6 -10.6875 L 5.796875 -10.265625 L 5.75 -9.671875 L 5.671875 -9.421875 L 5.59375 -8.890625 L 5.546875 -8.59375 L 5.46875 -8.296875 L 5.34375 -7.671875 L 5.21875 -7.171875 L 5.21875 -6.84375 L 5 -5.96875 L 5.046875 -5.625 L 5 -5.34375 L 4.796875 -4.75 L 4.796875 -4.46875 L 4.75 -3.875 L 4.671875 -3.625 L 4.625 -3 L 4.546875 -2.71875 L 4.25 -1.828125 L 4.21875 -0.953125 L 4.125 -0.328125 L 4.5 0 L 4.796875 0 Z M 5.171875 0.125 "/></g></g></g><g fill="#8338ec" fill-opacity="1"><g transform="translate(148.091732, 41.117203)"><g><path d="M 10.09375 0.671875 L 11.015625 0.546875 L 11.46875 0.421875 L 11.765625 0.375 L 12.34375 0.25 L 12.6875 0.171875 L 12.96875 0.125 L 13.9375 -0.25 L 14.09375 -0.375 L 14.59375 -0.703125 L 15.109375 -1.078125 L 15.3125 -1.328125 L 15.5625 -1.546875 L 16.0625 -2.046875 L 16.140625 -2.296875 L 16.359375 -2.546875 L 16.515625 -2.796875 L 16.890625 -3.34375 L 17.109375 -3.625 L 17.4375 -4.375 L 17.734375 -4.96875 L 17.765625 -5.375 L 17.984375 -5.671875 L 18.109375 -6.125 L 18.109375 -6.421875 L 18.234375 -6.921875 L 18.4375 -7.390625 L 18.484375 -7.84375 L 18.609375 -8.09375 L 18.8125 -8.59375 L 18.765625 -8.84375 L 19.1875 -10.296875 L 19.3125 -10.5625 L 19.40625 -11.140625 L 19.484375 -11.4375 L 19.484375 -11.8125 L 19.609375 -12.5625 L 19.734375 -12.8125 L 19.859375 -13.34375 L 19.90625 -13.84375 L 20.03125 -14.390625 L 20.109375 -14.9375 L 20.28125 -15.484375 L 20.234375 -15.984375 L 20.4375 -16.4375 L 20.40625 -16.859375 L 20.484375 -17.515625 L 20.5625 -17.8125 L 20.609375 -18.484375 L 20.65625 -19.109375 L 20.734375 -19.6875 L 20.78125 -19.9375 L 20.78125 -20.359375 L 20.734375 -20.65625 L 20.78125 -20.90625 L 20.859375 -21.1875 L 20.90625 -21.734375 L 20.90625 -22.03125 L 20.859375 -22.5625 L 20.90625 -22.8125 L 20.9375 -23.359375 L 20.9375 -23.65625 L 20.90625 -23.984375 L 20.8125 -24.78125 L 20.6875 -25.40625 L 20.609375 -25.703125 L 20.53125 -25.953125 L 20.40625 -26.203125 L 20.15625 -26.734375 L 20.03125 -27.03125 L 19.8125 -27.28125 L 19.359375 -27.703125 L 18.90625 -28.078125 L 18.6875 -28.328125 L 18.359375 -28.53125 L 17.609375 -29.03125 L 16.984375 -29.328125 L 16.734375 -29.40625 L 16.390625 -29.453125 L 16.0625 -29.578125 L 15.390625 -29.65625 L 14.9375 -29.703125 L 14.6875 -29.75 L 13.9375 -29.78125 L 13.4375 -29.75 L 12.84375 -29.703125 L 12.09375 -29.578125 L 11.6875 -29.53125 L 11.0625 -29.375 L 10.8125 -29.328125 L 10.171875 -29.15625 L 9.671875 -28.90625 L 9.171875 -28.625 L 8.890625 -28.40625 L 8.546875 -28.28125 L 8.015625 -27.90625 L 7.421875 -27.28125 L 7.21875 -27.03125 L 6.921875 -26.828125 L 6.59375 -26.328125 L 6.25 -25.78125 L 6.09375 -25.53125 L 6.046875 -25.234375 L 5.671875 -24.703125 L 5.5 -24.40625 L 5.25 -23.90625 L 5.046875 -23.328125 L 4.875 -22.8125 L 4.75 -22.53125 L 4.5 -21.984375 L 4.421875 -21.4375 L 4.21875 -21.15625 L 4.046875 -20.109375 L 3.96875 -19.53125 L 3.921875 -19.28125 L 3.796875 -18.984375 L 3.71875 -18.484375 L 3.71875 -17.890625 L 3.625 -17.609375 L 3.375 -17.1875 L 3.421875 -16.9375 L 3.34375 -16.640625 L 3.34375 -16.390625 L 3.25 -16.109375 L 3.125 -15.859375 L 3.125 -15.5625 L 3 -15.0625 L 3 -14.515625 L 2.875 -14.015625 L 2.75 -13.265625 L 2.671875 -12.96875 L 2.59375 -12.4375 L 2.671875 -12.21875 L 2.5 -11.640625 L 2.5 -11.34375 L 2.421875 -10.765625 L 2.421875 -10.421875 L 2.25 -9.84375 L 2.171875 -8.921875 L 2.171875 -8.640625 L 2.21875 -8.296875 L 2.078125 -7.890625 L 2.078125 -7.09375 L 2 -6.796875 L 2.125 -5.96875 L 2.171875 -5.71875 L 2.21875 -5.125 L 2.296875 -4.875 L 2.34375 -4.59375 L 2.421875 -4.34375 L 2.5 -4.125 L 2.546875 -3.875 L 2.671875 -3.59375 L 2.671875 -3.34375 L 3 -2.796875 L 3.21875 -2.5 L 3.34375 -2.25 L 3.546875 -2.046875 L 3.671875 -1.828125 L 4.25 -1.171875 L 5 -0.546875 L 5.59375 -0.171875 L 5.875 0 L 6.515625 0.171875 L 6.84375 0.203125 L 7.796875 0.5 L 8.171875 0.546875 L 8.46875 0.578125 L 9.015625 0.546875 Z M 9.765625 -5 L 9.515625 -5.046875 L 9.171875 -5.125 L 8.84375 -5.25 L 8.640625 -5.46875 L 8.390625 -5.84375 L 8.296875 -6 L 8.171875 -6.296875 L 8.171875 -7.46875 L 8.046875 -7.765625 L 8.21875 -8.171875 L 8.265625 -8.671875 L 8.140625 -8.96875 L 8.265625 -9.265625 L 8.265625 -9.546875 L 8.390625 -10.171875 L 8.390625 -10.515625 L 8.46875 -10.8125 L 8.46875 -11.140625 L 8.546875 -11.515625 L 8.515625 -11.6875 L 8.59375 -11.96875 L 8.546875 -12.3125 L 8.765625 -12.890625 L 8.890625 -13.1875 L 8.84375 -13.515625 L 8.890625 -13.8125 L 8.890625 -14.09375 L 8.96875 -14.6875 L 9.046875 -14.984375 L 9.21875 -15.640625 L 9.34375 -15.984375 L 9.421875 -16.609375 L 9.515625 -16.890625 L 9.546875 -17.1875 L 9.671875 -17.859375 L 9.796875 -18.4375 L 9.96875 -19.03125 L 10.015625 -19.28125 L 10.140625 -19.859375 L 10.171875 -20.1875 L 10.171875 -20.28125 L 10.515625 -21.484375 L 10.59375 -21.78125 L 10.84375 -22.3125 L 11.015625 -22.609375 L 11.1875 -23.109375 L 11.46875 -23.578125 L 11.890625 -23.953125 L 12.5625 -24.203125 L 12.890625 -24.28125 L 13.6875 -24.328125 L 14.34375 -24.03125 L 14.640625 -23.65625 L 14.8125 -23.40625 L 14.984375 -22.5625 L 14.890625 -21.984375 L 14.859375 -21.4375 L 14.765625 -20.6875 L 14.765625 -20.15625 L 14.6875 -19.78125 L 14.5625 -19.1875 L 14.46875 -18.859375 L 14.4375 -18.3125 L 14.46875 -18.015625 L 14.390625 -17.734375 L 14.3125 -17.390625 L 14.21875 -16.890625 L 14.0625 -16.265625 L 14.09375 -15.5625 L 13.96875 -15.3125 L 13.890625 -14.515625 L 13.765625 -14.1875 L 13.640625 -13.8125 L 13.5625 -12.84375 L 13.4375 -12.21875 L 13.3125 -11.84375 L 13.34375 -11.71875 L 13.34375 -11.390625 L 13.21875 -11.140625 L 13.1875 -10.8125 L 13.0625 -10.265625 L 12.9375 -9.96875 L 12.890625 -9.390625 L 12.765625 -9.046875 L 12.6875 -8.46875 L 12.59375 -8.171875 L 12.46875 -7.546875 L 12.46875 -7.21875 L 12.390625 -6.921875 L 12.140625 -6.34375 L 11.84375 -5.75 L 11.265625 -5.34375 L 10.890625 -5.171875 L 10.296875 -5 Z M 9.765625 -5 "/></g></g></g><g fill="#8338ec" fill-opacity="1"><g transform="translate(171.285595, 41.117203)"><g><path d="M 5.5 0.078125 L 5.84375 0.046875 L 6.46875 0 L 6.84375 -0.046875 L 7.265625 0 L 7.390625 -0.375 L 7.515625 -0.671875 L 7.546875 -1.171875 L 7.59375 -1.453125 L 7.59375 -1.703125 L 7.640625 -2 L 7.671875 -2.546875 L 7.671875 -2.796875 L 7.765625 -3.09375 L 7.71875 -3.34375 L 7.84375 -3.921875 L 7.84375 -4.25 L 7.921875 -4.5 L 7.96875 -4.84375 L 8.140625 -5.71875 L 8.21875 -6.046875 L 8.21875 -6.921875 L 8.390625 -7.265625 L 8.46875 -7.84375 L 8.46875 -8.09375 L 8.546875 -8.671875 L 8.765625 -9.21875 L 8.765625 -9.921875 L 8.890625 -10.8125 L 8.921875 -11.140625 L 9.046875 -11.71875 L 9.140625 -11.96875 L 9.171875 -12.140625 L 9.46875 -12.09375 L 9.640625 -11.9375 L 9.796875 -11.59375 L 9.890625 -11.265625 L 10.046875 -10.9375 L 10.140625 -10.515625 L 10.265625 -9.921875 L 10.34375 -9.71875 L 10.390625 -9.140625 L 10.5625 -8.59375 L 10.640625 -8.046875 L 10.71875 -7.765625 L 10.890625 -7.265625 L 10.9375 -6.96875 L 11.1875 -6.21875 L 11.1875 -5.71875 L 11.34375 -5.296875 L 11.46875 -4.84375 L 11.515625 -4.546875 L 11.640625 -4.296875 L 11.640625 -4 L 11.765625 -3.71875 L 11.84375 -3.171875 L 11.9375 -3.046875 L 12.0625 -2.71875 L 12.0625 -2.375 L 12.3125 -1.75 L 12.4375 -1.296875 L 12.515625 -1.078125 L 12.640625 -0.578125 L 12.71875 -0.375 L 13.09375 0 L 13.34375 0.046875 L 13.71875 0 L 14.0625 0 L 14.515625 -0.046875 L 15.0625 -0.046875 L 16.140625 -0.171875 L 17.015625 -0.296875 L 17.5625 -0.296875 L 18.015625 -0.375 L 18.234375 -0.421875 L 18.359375 -0.953125 L 18.0625 -1.75 L 17.984375 -2.125 L 17.9375 -2.421875 L 17.890625 -2.921875 L 17.609375 -3.625 L 17.515625 -4.21875 L 17.0625 -5.71875 L 16.984375 -6.25 L 16.765625 -6.890625 L 16.765625 -7.140625 L 16.609375 -7.671875 L 16.515625 -8.015625 L 16.390625 -8.296875 L 16.3125 -8.890625 L 16.234375 -9.140625 L 16.109375 -9.671875 L 15.984375 -9.921875 L 15.890625 -10.46875 L 15.859375 -10.8125 L 15.6875 -11.0625 L 15.609375 -11.59375 L 15.609375 -11.96875 L 15.390625 -12.59375 L 15.265625 -12.9375 L 15.265625 -13.3125 L 15.5625 -13.34375 L 16.140625 -13.640625 L 16.984375 -14.1875 L 17.5625 -14.8125 L 17.765625 -15.015625 L 18.234375 -15.5625 L 18.359375 -15.8125 L 18.6875 -16.359375 L 18.859375 -16.734375 L 18.984375 -17.015625 L 19.359375 -17.5625 L 19.5625 -18.0625 L 19.6875 -18.359375 L 19.78125 -18.609375 L 19.859375 -18.90625 L 20.03125 -19.40625 L 20.15625 -19.8125 L 20.234375 -20.484375 L 20.359375 -21.15625 L 20.359375 -21.4375 L 20.3125 -22.0625 L 20.359375 -22.359375 L 20.484375 -22.9375 L 20.484375 -23.28125 L 20.359375 -24.078125 L 20.359375 -24.359375 L 20.28125 -25.15625 L 20.15625 -25.828125 L 19.859375 -26.40625 L 19.5625 -26.90625 L 19.40625 -27.109375 L 19.1875 -27.375 L 19.03125 -27.53125 L 18.515625 -27.828125 L 18.3125 -27.953125 L 18.0625 -28.078125 L 17.6875 -28.328125 L 17.390625 -28.40625 L 17.015625 -28.578125 L 16.5625 -28.78125 L 16.234375 -28.875 L 15.5625 -28.875 L 15.109375 -28.953125 L 14.46875 -29 L 13.9375 -29.078125 L 13.5625 -29.078125 L 12.9375 -29.15625 L 12.59375 -29.25 L 12.1875 -29.203125 L 11.890625 -29.15625 L 10.09375 -29.15625 L 7.59375 -29.203125 L 7.015625 -29.203125 L 6.59375 -29.125 L 6.296875 -28.78125 L 6.125 -28.578125 L 6.171875 -28.125 L 6 -27.78125 L 6 -27.453125 L 5.96875 -27.15625 L 5.921875 -26.828125 L 5.75 -25.65625 L 5.625 -24.984375 L 5.5 -24.484375 L 5.421875 -24.203125 L 5.421875 -23.953125 L 5.375 -23.40625 L 5.375 -23.15625 L 5.34375 -22.90625 L 5.21875 -22.3125 L 5.09375 -21.65625 L 4.96875 -21.0625 L 4.921875 -20.8125 L 4.875 -20.234375 L 4.71875 -19.734375 L 4.671875 -19.484375 L 4.671875 -19.1875 L 4.625 -18.9375 L 4.546875 -18.390625 L 4.5 -18.109375 L 4.46875 -17.859375 L 4.46875 -17.5625 L 4.25 -16.6875 L 4.25 -16.359375 L 4.171875 -15.765625 L 4.09375 -15.234375 L 4.046875 -14.984375 L 3.96875 -14.515625 L 3.875 -14.21875 L 3.875 -13.96875 L 3.75 -13.71875 L 3.671875 -13.4375 L 3.625 -12.9375 L 3.671875 -12.6875 L 3.59375 -12.4375 L 3.375 -12.140625 L 3.375 -11.765625 L 3.34375 -11.4375 L 3.296875 -11.140625 L 3.125 -10.5625 L 3.125 -10.21875 L 3.09375 -9.59375 L 3 -9.171875 L 3 -8.796875 L 2.796875 -8.046875 L 2.796875 -7.421875 L 2.625 -7.09375 L 2.671875 -6.765625 L 2.625 -6.46875 L 2.546875 -6.125 L 2.5 -5.546875 L 2.375 -5.21875 L 2.421875 -4.921875 L 2.296875 -4.59375 L 2.296875 -4.296875 L 2.171875 -3.71875 L 2.125 -3.421875 L 2.125 -3.171875 L 2 -2.875 L 2 -2.59375 L 1.921875 -2.34375 L 1.921875 -2.046875 L 1.875 -1.578125 L 1.828125 -1.171875 L 1.703125 -0.75 L 1.703125 -0.375 L 1.796875 -0.125 L 2.171875 -0.046875 L 3.46875 0.046875 L 4 0.046875 Z M 10.9375 -17.109375 L 10.21875 -17.1875 L 10.265625 -17.515625 L 10.21875 -17.8125 L 10.265625 -18.109375 L 10.390625 -18.765625 L 10.46875 -19.15625 L 10.421875 -19.53125 L 10.5625 -19.90625 L 10.640625 -20.53125 L 10.640625 -20.8125 L 10.765625 -21.484375 L 10.84375 -21.8125 L 10.890625 -22.359375 L 10.9375 -22.984375 L 11.015625 -23.65625 L 11.140625 -23.953125 L 11.265625 -24.40625 L 11.640625 -24.53125 L 12.640625 -24.484375 L 13.5625 -24.359375 L 13.9375 -24.15625 L 14.21875 -23.859375 L 14.4375 -23.484375 L 14.5625 -22.609375 L 14.59375 -21.6875 L 14.5625 -21.03125 L 14.4375 -20.6875 L 14.4375 -20.359375 L 14.140625 -19.78125 L 14.09375 -19.53125 L 14.015625 -19.1875 L 13.8125 -18.640625 L 13.515625 -18.390625 L 13.34375 -18.140625 L 13.0625 -17.8125 L 12.765625 -17.640625 L 12.34375 -17.390625 L 12.09375 -17.234375 L 11.59375 -17.109375 Z M 10.9375 -17.109375 "/></g></g></g><g fill="#8338ec" fill-opacity="1"><g transform="translate(193.853755, 41.117203)"><g/></g></g><g fill="#81e6d9" fill-opacity="1"><g transform="translate(206.164158, 41.117203)"><g><path d="M 3.375 0.078125 L 3.71875 0.046875 L 4.875 0.078125 L 5.125 -0.078125 L 5.296875 -0.375 L 5.421875 -0.578125 L 5.546875 -1.046875 L 5.796875 -1.671875 L 6.21875 -2.46875 L 6.390625 -2.96875 L 6.515625 -3.25 L 6.59375 -3.546875 L 6.890625 -4.09375 L 7.09375 -4.546875 L 8.21875 -4.546875 L 10.046875 -4.5 L 10.71875 -4.421875 L 11.640625 -4.375 L 11.6875 -4.046875 L 11.6875 -2.078125 L 11.640625 -1.671875 L 11.6875 -1.25 L 11.71875 -0.5 L 11.8125 -0.078125 L 11.96875 0.046875 L 12.59375 0.046875 L 13.140625 0.078125 L 13.5625 0.046875 L 13.84375 0 L 14.34375 0.046875 L 14.6875 0.046875 L 15.609375 0 L 16.1875 0 L 16.515625 0.046875 L 16.8125 0 C 16.984375 0 17.109375 0.046875 17.265625 0 C 17.484375 -0.125 17.4375 -0.5 17.390625 -0.671875 L 17.390625 -1.546875 L 17.359375 -2.46875 L 17.359375 -2.84375 L 17.3125 -3.171875 L 17.359375 -3.75 L 17.359375 -4.375 L 17.3125 -4.671875 L 17.265625 -5.21875 L 17.265625 -5.46875 L 17.1875 -7.046875 L 17.234375 -7.34375 L 17.1875 -7.921875 L 17.234375 -8.546875 L 17.1875 -9.171875 L 17.1875 -9.46875 L 17.140625 -11.390625 L 17.140625 -12.640625 L 17.109375 -12.96875 L 17.0625 -13.46875 L 17.0625 -15.109375 L 16.984375 -15.5625 L 16.9375 -16.234375 L 16.9375 -16.484375 L 16.890625 -17.015625 L 16.9375 -17.265625 L 16.890625 -17.859375 L 16.890625 -18.6875 L 16.8125 -19.28125 L 16.8125 -20.1875 L 16.859375 -20.484375 L 16.8125 -21.109375 L 16.8125 -21.6875 L 16.734375 -22.53125 L 16.6875 -23.078125 L 16.6875 -23.65625 L 16.640625 -25.15625 L 16.640625 -25.90625 L 16.5625 -26.15625 L 16.5625 -27.078125 L 16.4375 -28.875 L 16.140625 -29.078125 L 15.9375 -29.15625 L 15.265625 -29.15625 L 14.890625 -29.125 L 14.59375 -29.203125 L 14.21875 -29.203125 L 13.4375 -29.15625 L 12.765625 -29.15625 L 12.34375 -29.125 L 11.5625 -29.15625 L 11.140625 -29.15625 L 10.84375 -29.125 L 10.6875 -28.65625 L 10.046875 -27.375 L 9.765625 -26.828125 L 9.515625 -26.078125 L 9.421875 -25.859375 L 9.265625 -25.609375 L 9.015625 -25.15625 L 8.921875 -24.859375 L 8.84375 -24.609375 L 8.71875 -24.359375 L 8.640625 -24.078125 L 8.265625 -23.328125 L 8.140625 -23.03125 L 8.015625 -22.609375 L 7.765625 -22.234375 L 7.640625 -21.984375 L 7.421875 -21.4375 L 7.09375 -20.5625 L 6.921875 -20.3125 L 6.71875 -20.03125 L 6.59375 -19.4375 L 6.34375 -18.90625 L 6.25 -18.6875 L 6.125 -18.140625 L 5.921875 -17.859375 L 5.796875 -17.3125 L 5.671875 -17.0625 L 5.421875 -16.609375 L 5.21875 -15.890625 L 4.921875 -15.359375 L 4.796875 -15.015625 L 4.46875 -13.84375 L 4.34375 -13.59375 L 4.125 -13.015625 L 4 -12.765625 L 3.875 -12.46875 L 3.84375 -12.21875 L 3.59375 -11.640625 L 3.5 -11.34375 L 3.25 -10.84375 L 3.046875 -10.515625 L 2.96875 -10.140625 L 2.875 -9.84375 L 2.59375 -9.265625 L 2.46875 -8.96875 L 2.25 -8.421875 L 2.125 -8.171875 L 2.078125 -7.890625 L 2 -7.640625 L 1.796875 -7.140625 L 1.578125 -6.84375 L 1.5 -6.59375 L 1.171875 -5.84375 L 1 -5.296875 L 0.546875 -4.296875 L 0.328125 -3.796875 L 0.078125 -3.296875 L -0.328125 -2.046875 L -0.671875 -1.5 L -0.921875 -1 L -0.953125 -0.75 L -1.046875 -0.453125 L -0.953125 -0.125 L -0.578125 -0.046875 L 2.46875 0 L 2.75 0.046875 Z M 10.265625 -9.96875 L 9.890625 -10.015625 L 9.421875 -10.046875 L 9.09375 -10.046875 L 8.796875 -10.296875 L 8.921875 -10.59375 L 9.015625 -10.96875 L 9.09375 -11.265625 L 9.296875 -11.96875 L 9.46875 -12.265625 L 9.671875 -12.890625 L 9.71875 -13.1875 L 9.96875 -14.09375 L 10.09375 -14.46875 L 10.21875 -14.765625 L 10.34375 -15.140625 L 10.515625 -15.4375 L 10.5625 -15.734375 L 10.71875 -16.140625 L 10.890625 -16.484375 L 11.09375 -17.140625 L 11.21875 -17.5625 L 11.4375 -18.234375 L 11.59375 -18.765625 L 11.9375 -18.90625 L 11.96875 -17.9375 L 11.9375 -16.4375 L 11.890625 -14.859375 L 11.9375 -13.84375 L 11.84375 -13.515625 L 11.84375 -12.8125 L 11.8125 -12.515625 L 11.8125 -11.4375 L 11.765625 -11.09375 L 11.8125 -10.765625 L 11.765625 -10.171875 L 11.515625 -9.96875 Z M 10.265625 -9.96875 "/></g></g></g><g fill="#81e6d9" fill-opacity="1"><g transform="translate(227.731174, 41.117203)"><g><path d="M 5.75 0.078125 L 6.84375 0.078125 L 7.296875 -0.046875 L 7.421875 -0.421875 L 7.46875 -0.75 L 7.59375 -1.296875 L 7.671875 -1.875 L 7.796875 -2.421875 L 7.96875 -3.421875 L 8.09375 -3.875 L 8.09375 -4.171875 L 8.171875 -4.71875 L 8.265625 -5.296875 L 8.390625 -5.875 L 8.390625 -6.21875 L 8.546875 -6.765625 L 8.59375 -7.09375 L 8.71875 -7.71875 L 8.671875 -8.171875 L 8.890625 -8.59375 L 8.890625 -9.171875 L 8.921875 -9.390625 L 9.015625 -9.96875 L 9.015625 -10.296875 L 9.171875 -10.890625 L 9.171875 -11.21875 L 9.34375 -11.8125 L 9.421875 -12.3125 L 9.515625 -12.84375 L 9.640625 -13.390625 L 9.640625 -13.71875 L 9.765625 -14.015625 L 9.921875 -14.59375 L 10.140625 -15.859375 L 10.265625 -16.265625 L 10.34375 -16.8125 L 10.34375 -17.109375 L 10.390625 -17.4375 L 10.421875 -17.734375 L 10.421875 -18.109375 L 10.5625 -18.484375 L 10.6875 -19.0625 L 10.71875 -19.28125 L 10.84375 -19.8125 L 10.96875 -20.3125 L 11.0625 -20.859375 L 11.09375 -21.15625 L 11.140625 -21.65625 L 11.1875 -21.9375 L 11.265625 -22.4375 L 11.34375 -22.6875 L 11.4375 -23.15625 L 11.640625 -24.234375 L 11.6875 -24.484375 L 11.6875 -24.78125 L 11.71875 -25.03125 L 11.71875 -25.359375 L 11.890625 -25.734375 L 11.96875 -26.328125 L 12.09375 -26.53125 L 12.09375 -26.90625 L 12.21875 -27.078125 L 12.1875 -27.328125 L 12.21875 -27.78125 L 12.3125 -27.90625 L 12.3125 -28.453125 L 12.34375 -28.703125 L 12.1875 -29.125 L 11.71875 -29.25 L 11.4375 -29.203125 L 9.21875 -29.203125 L 8.921875 -29.15625 L 8.34375 -29.15625 L 7.96875 -29.203125 L 7.34375 -29.15625 L 7.046875 -29.125 L 6.796875 -28.953125 L 6.515625 -28.828125 L 6.21875 -28.40625 L 6.171875 -28.125 L 6.09375 -27.875 L 6 -27.25 L 5.84375 -26.78125 L 5.75 -26.328125 L 5.71875 -25.828125 L 5.625 -25.578125 L 5.59375 -25.328125 L 5.46875 -24.78125 L 5.375 -24.203125 L 5.296875 -23.984375 L 5.25 -23.453125 L 5.21875 -23.109375 L 5.25 -22.8125 L 5.09375 -22.28125 L 5.046875 -21.984375 L 4.921875 -21.4375 L 4.875 -21.1875 L 4.71875 -20.6875 L 4.75 -20.40625 L 4.71875 -20.15625 L 4.625 -19.5625 L 4.5 -19.28125 L 4.5 -18.6875 L 4.375 -17.8125 L 4.171875 -17.234375 L 4.046875 -16.6875 L 3.96875 -16.1875 L 3.96875 -15.640625 L 3.796875 -15.3125 L 3.71875 -14.734375 L 3.71875 -14.4375 L 3.546875 -13.84375 L 3.546875 -13.265625 L 3.46875 -12.6875 L 3.421875 -12.4375 L 3.375 -12.140625 L 3.296875 -11.84375 L 3.296875 -11.59375 L 3.21875 -10.96875 L 2.921875 -10.046875 L 2.96875 -9.765625 L 2.875 -9.46875 L 2.84375 -9.21875 L 2.75 -8.921875 L 2.75 -8.640625 L 2.671875 -8.140625 L 2.59375 -7.765625 L 2.46875 -7.390625 L 2.375 -7.015625 L 2.25 -6.546875 L 2.125 -5.796875 L 2.171875 -5.546875 L 2 -5 L 1.953125 -4.71875 L 1.875 -4.375 L 1.828125 -4.09375 L 1.703125 -3.46875 L 1.671875 -3.125 L 1.578125 -2.546875 L 1.5 -2.25 L 1.453125 -1.625 L 1.25 -1.046875 L 1.296875 -0.421875 L 1.625 -0.125 L 1.953125 -0.046875 L 2.296875 -0.078125 L 2.59375 -0.046875 L 3.046875 0 L 3.34375 -0.046875 L 3.671875 -0.046875 L 4.25 0.046875 L 5.46875 0.046875 Z M 5.75 0.078125 "/></g></g></g></svg>